<?xml version="1.0" encoding="utf-8"?>
<!-- Uploaded to: SVG Repo, www.svgrepo.com, Generator: SVG Repo Mixer Tools -->
<svg width="800px" height="800px" viewBox="0 0 64 64" xmlns="http://www.w3.org/2000/svg" xmlns:xlink="http://www.w3.org/1999/xlink" aria-hidden="true" role="img" class="iconify iconify--emojione" preserveAspectRatio="xMidYMid meet">
<path d="M10.8 53.2c11.7 11.7 30.7 11.7 42.4 0L10.8 10.8C-.9 22.5-.9 41.5 10.8 53.2" fill="#2a5f9e">
</path>
<path d="M10.8 10.8l42.4 42.4V10.8C41.5-.9 22.5-.9 10.8 10.8" fill="#ffce31">
</path>
<path d="M53.2 10.8v42.4c11.7-11.7 11.7-30.7 0-42.4" fill="#2a5f9e">
</path>
<g fill="#ffffff">
<path d="M10.9 21l2.4 1.8l-.9-3l2.4-1.8h-3l-.9-3l-.9 3H7l2.4 1.8l-.9 3z">
</path>
<path d="M17.7 27.8l2.5 1.9l-1-3l2.5-1.9h-3l-1-3l-.9 3h-3l2.4 1.9l-.9 3z">
</path>
<path d="M24.6 34.7l2.4 1.8l-.9-3l2.4-1.8l-3-.1l-.9-2.9l-.9 2.9l-3 .1l2.4 1.8l-.9 3z">
</path>
<path d="M31.4 41.5l2.4 1.8l-.9-3l2.4-1.8h-3l-.9-3l-.9 3h-3l2.4 1.8l-.9 3z">
</path>
<path d="M38.3 48.3l2.4 1.9l-.9-3l2.4-1.9h-3l-.9-3l-1 3h-3l2.5 1.9l-1 3z">
</path>
<path d="M45.1 55.2l2.4 1.8l-.9-3l2.4-1.8h-3l-.9-3l-.9 3h-3l2.4 1.8l-.9 3z">
</path>
</g>
</svg>